# xmcd
#
# Track frame offsets: 
#        150
#        18709
#        37679
#        55427
#        73968
#        91079
#        106674
#        131798
#        150806
#        171894
#
# Disc length: 2521 seconds
#
# Revision: 0
# Processed by: cddbd v1.5.2PL0 Copyright (c) Steve Scherf et al.
# Submitted via: ExactAudioCopy v1.3
#
DISCID=7809d70a
DTITLE=Quiet The Dog - What Now
DYEAR=2018
DGENRE=Electric Blues
TTITLE0=Annoyed
TTITLE1=Saturday Morning
TTITLE2=Sometimes
TTITLE3=Rollin' Along
TTITLE4=Leaving Something Behind
TTITLE5=Alabama Dirt
TTITLE6=Content In Sadness
TTITLE7=Easy Nights
TTITLE8=Lincoln County War
TTITLE9=Keep It Down
EXTD=
EXTT0=
EXTT1=
EXTT2=
EXTT3=
EXTT4=
EXTT5=
EXTT6=
EXTT7=
EXTT8=
EXTT9=
PLAYORDER=
